<svg xmlns="http://www.w3.org/2000/svg" width="1200" height="360" viewBox="0 0 1200 360" role="img" aria-labelledby="title desc">
  <title id="title">dsh-chaos</title>
  <desc id="desc">A neobrutalist banner for durable peer collaboration, with a C-shaped chaos route, a channel hash, and a Channel timeline opening into a Thread panel.</desc>

  <rect x="18" y="22" width="1164" height="320" rx="26" fill="#111111"/>
  <rect x="8" y="8" width="1164" height="320" rx="26" fill="#FFF6DF" stroke="#111111" stroke-width="8"/>

  <!-- C + # + reply branch emblem. -->
  <g transform="translate(42 41)">
    <rect x="8" y="12" width="248" height="248" rx="34" fill="#111111"/>
    <rect width="248" height="248" rx="34" fill="#FFFDF4" stroke="#111111" stroke-width="8"/>
    <path d="M177 70C160 51 134 43 108 49C68 58 43 94 43 133C43 178 77 213 121 216C150 218 176 206 194 185"
          fill="none" stroke="#111111" stroke-width="31" stroke-linecap="round"/>
    <path d="M177 70C160 51 134 43 108 49C68 58 43 94 43 133C43 178 77 213 121 216C150 218 176 206 194 185"
          fill="none" stroke="#37DDF5" stroke-width="18" stroke-linecap="round"/>
    <g fill="none" stroke-linecap="square">
      <path d="M113 87L102 177M151 87L140 177M86 115H164M81 148H159" stroke="#111111" stroke-width="21"/>
      <path d="M113 87L102 177M151 87L140 177M86 115H164M81 148H159" stroke="#FFD60A" stroke-width="11"/>
    </g>
    <path d="M159 133H184M184 133V103M184 133V172M184 103H195M184 172H195"
          fill="none" stroke="#111111" stroke-width="7" stroke-linecap="square"/>
    <g stroke="#111111" stroke-width="6" stroke-linejoin="round">
      <path d="M194 84H229V112H214L202 121V112H194Z" fill="#FF4F9A"/>
      <path d="M194 154H229V182H214L202 191V182H194Z" fill="#FFFDF4"/>
      <path d="M21 116H59V149H42L29 160V149H21Z" fill="#FF4F9A"/>
    </g>
  </g>

  <g font-family="Arial Black, Arial, Helvetica, sans-serif" fill="#111111">
    <text x="338" y="78" font-size="16" font-weight="800" letter-spacing="2.6">DEEPSEEK HARNESS · PEER COLLABORATION</text>
    <text x="332" y="158" font-size="70" font-weight="900" letter-spacing="-3">dsh-chaos</text>
    <text x="336" y="202" font-family="Arial, Helvetica, sans-serif" font-size="25" font-weight="700">Agents coordinate. The ledger remembers.</text>
  </g>

  <g font-family="Arial, Helvetica, sans-serif" font-size="14" font-weight="800" fill="#111111" stroke="#111111" stroke-width="4">
    <rect x="336" y="240" width="150" height="42" rx="5" fill="#FFD60A"/>
    <rect x="498" y="240" width="140" height="42" rx="5" fill="#37DDF5"/>
    <rect x="650" y="240" width="126" height="42" rx="5" fill="#FF4F9A"/>
    <rect x="788" y="240" width="170" height="42" rx="5" fill="#FFFDF4"/>
    <g stroke="none" text-anchor="middle">
      <text x="411" y="266">STABLE AGENTS</text>
      <text x="568" y="266">CHANNELS</text>
      <text x="713" y="266">TASKS</text>
      <text x="873" y="266">DURABLE DELIVERY</text>
    </g>
  </g>

  <!-- Channel timeline with a docked Thread panel. -->
  <g transform="translate(976 47)" stroke="#111111" stroke-linejoin="round">
    <rect x="8" y="10" width="132" height="224" rx="12" fill="#111111" stroke-width="7"/>
    <rect width="132" height="224" rx="12" fill="#FFFDF4" stroke-width="7"/>
    <rect x="0" y="0" width="132" height="45" rx="12" fill="#FFD60A" stroke-width="7"/>
    <path d="M0 45H132" stroke-width="7"/>
    <g fill="none" stroke-linecap="square">
      <path d="M22 13L18 33M39 13L35 33M13 20H44M11 27H42" stroke-width="5"/>
    </g>
    <g stroke-width="6">
      <circle cx="22" cy="72" r="8" fill="#37DDF5"/>
      <path d="M40 67H105M40 77H88"/>
      <circle cx="22" cy="116" r="8" fill="#FF4F9A"/>
      <path d="M40 111H100M40 121H76"/>
      <circle cx="22" cy="160" r="8" fill="#37DDF5"/>
      <path d="M40 155H108M40 165H91"/>
      <circle cx="22" cy="204" r="8" fill="#FF4F9A"/>
      <path d="M40 199H96M40 209H72"/>
    </g>

    <path d="M98 116H151" fill="none" stroke-width="8" stroke-linecap="square"/>

    <rect x="76" y="73" width="112" height="174" rx="12" fill="#111111" stroke-width="7" transform="translate(7 9)"/>
    <rect x="76" y="73" width="112" height="174" rx="12" fill="#FFF6DF" stroke-width="7"/>
    <rect x="76" y="73" width="112" height="40" rx="12" fill="#37DDF5" stroke-width="7"/>
    <path d="M76 113H188" stroke-width="7"/>
    <path d="M91 92H104L96 84M104 92L96 100" fill="none" stroke-width="5" stroke-linecap="square"/>
    <g stroke-width="6">
      <circle cx="98" cy="139" r="7" fill="#FF4F9A"/>
      <path d="M114 135H171M114 144H156"/>
      <path d="M101 162V199" fill="none" stroke-dasharray="4 7"/>
      <circle cx="113" cy="178" r="7" fill="#FFD60A"/>
      <path d="M129 174H172M129 183H160"/>
      <circle cx="113" cy="218" r="7" fill="#37DDF5"/>
      <path d="M129 214H174M129 223H153"/>
    </g>
  </g>
</svg>
